<svg data-v-0dd9719b="" version="1.0" xmlns="http://www.w3.org/2000/svg" xmlns:xlink="http://www.w3.org/1999/xlink" width="100%" height="100%" viewBox="0 0 340.000000 250.000000" preserveAspectRatio="xMidYMid meet" color-interpolation-filters="sRGB" style="margin: auto;"> <rect data-v-0dd9719b="" x="0" y="0" width="100%" height="100%" fill="#ffffff" fill-opacity="1" class="background"></rect> <rect data-v-0dd9719b="" x="0" y="0" width="100%" height="100%" fill="url(#watermark)" fill-opacity="1" class="watermarklayer"></rect> <g data-v-0dd9719b="" class="iconmbgsvg" transform="translate(74.19499969482422,72.48477172851562)"><g fill="#131e5f" hollow-target="textRect"><g mask="url(#db5bd387-693d-487d-bf2d-e3a8caae2bc6)"><g><rect fill="#131e5f" fill-opacity="0" stroke-width="2" x="0" y="0" width="105" height="105.03045883306159" class="image-rect"></rect> <svg filter="url(#colors6520805818)" x="0" y="0" width="105" height="105.03045883306159" filtersec="colorsf4652510512" class="image-svg-svg primary" style="overflow: visible;"><svg xmlns="http://www.w3.org/2000/svg" viewBox="-0.09710283577442169 0.03862883150577545 418.74066162109375 418.8631286621094"><g><g><path d="M336.27 375.88a200.32 200.32 0 0 0 53.56-64.34c-.36.51-.74 1-1.09 1.54s-.69 1.13-1 1.71C372.88 340.34 353 361.22 328.77 378a196.08 196.08 0 0 1-81.9 33.09c-30.13 4.75-60.17 4.17-90-2.84-2.43-.57-4.83-1.27-7.23-2s-4.73-1.4-7.14-1.89a204 204 0 0 0 69.29 13 208.09 208.09 0 0 0 69.9-10.81c-1.16.44-2.32.91-3.5 1.32a194.59 194.59 0 0 1-47.85 10.58c-7.6.66-15.31 0-23 .31-25 1.08-49-4.08-72.15-13.08-29-11.26-54.42-28.07-75.44-51a227.42 227.42 0 0 1-55.72-108 195.16 195.16 0 0 1-2.63-64.05 205.28 205.28 0 0 1 37-95.82 201.64 201.64 0 0 1 37.76-39.63 4.65 4.65 0 0 1 1.73-.93c-19.08 16.43-35.1 35.35-47 57.62 1.21-1.88 2.41-3.78 3.63-5.65s2.47-3.75 3.75-5.6q38.43-55.17 102-77C161.14 8.43 182.7 5.21 204.77 5c16.61-.13 33.14.48 49.37 4.18 9.38 2.14 18.58 5.09 27.86 7.68a8.53 8.53 0 0 0 2.32.46C235.39-2.69 185.88-4 135.7 12.62c5.1-1.66 10.17-3.41 15.3-5a194 194 0 0 1 36.88-7.3c2.65-.26 5.33-.19 8-.2 6.32 0 12.66.18 19 0 21-.72 41.21 3.39 60.89 10.27 47 16.41 83.51 45.88 109.32 88.38 14.48 23.82 25.4 49.16 30.24 76.85a205.59 205.59 0 0 1-17.49 126.88 200.08 200.08 0 0 1-52.25 66.69c-2.91 2.45-5.9 4.79-8.86 7.17zm67.53-200.69c-.22-1-.45-1.93-.64-2.89a198.89 198.89 0 0 0-39.45-85.52q-37.9-48-96.16-67.24c-18.21-6-36.92-9.74-56.07-9.6a191.66 191.66 0 0 0-34.94 3.52C132.88 22 95.45 42.21 65.05 74.92a195.87 195.87 0 0 0-43.76 75.34c-3.48 11-5.71 22.46-8.1 32.08a185.73 185.73 0 0 1 8.37-37.62 235.32 235.32 0 0 1 15.9-36.94 6.92 6.92 0 0 0-1.57 2 198.65 198.65 0 0 0-21.24 52.31 205.32 205.32 0 0 0-5.18 71.07 198.32 198.32 0 0 0 17.28 64c11 23.59 27.06 43.38 46.28 60.73 1.34 1.21 2.77 2.31 4.15 3.46C42.66 328.41 21.27 288.76 14 241.63c2.24 8.52 4.07 17.21 6.75 25.63 13 40.93 36.42 74.65 70.59 100.77 29.44 22.5 62.72 35.66 99.44 40.1 20.39 2.47 40.54.54 60.43-4.19 40.25-9.56 74.41-29.65 102.47-60 24.49-26.48 40.53-57.48 48.53-92.63 1.29-5.66 2.19-11.41 3.27-17.13-2.73 28.36-11.73 54.69-26.23 80a7 7 0 0 0 1-.75c.32-.48.64-1 .94-1.47a202.42 202.42 0 0 0 28.95-96c1.45-31.42-3.79-61.68-16.48-90.51-9.85-22.41-24.71-41.3-42-58.35-.65-.65-1.33-1.26-2-1.88l-2-1.79c30.6 31.35 49.59 68.43 56.14 111.76zm10.74 36.61c-.85 7.54-1.43 17.2-3.08 26.68-6 34.21-19.26 65.29-41 92.56-16.37 20.57-36 37.5-58 51.82l-3.15 2a2.11 2.11 0 0 0 1.74-.3c9.13-6.08 18.68-11.63 27.29-18.37 29.47-23.1 50.85-52.34 64.66-87.15 8.87-22.29 12.06-45.5 11.54-67.24zM107.83 34.89C91.06 40 53.29 74 37.25 98.49c-22 33.52-34.66 69.83-33 109.8 4.01-75.53 39.98-132.65 103.58-173.4z"></path><path d="M12.17 197.06l-.62 10.09v-10.22z"></path></g></g></svg></svg> <defs><filter id="colors6520805818"><feColorMatrix type="matrix" values="0 0 0 0 0.94921875  0 0 0 0 0.44140625  0 0 0 0 0.1328125  0 0 0 1 0" class="icon-fecolormatrix"></feColorMatrix></filter> <filter id="colorsf4652510512"><feColorMatrix type="matrix" values="0 0 0 0 0.99609375  0 0 0 0 0.99609375  0 0 0 0 0.99609375  0 0 0 1 0" class="icon-fecolormatrix"></feColorMatrix></filter> <filter id="colorsb5702094137"><feColorMatrix type="matrix" values="0 0 0 0 0  0 0 0 0 0  0 0 0 0 0  0 0 0 1 0" class="icon-fecolormatrix"></feColorMatrix></filter></defs></g></g> <g transform="translate(27.389999389648438,31.653350830078125)"><g data-gra="path-name" fill-rule="" class="tp-name" transform="translate(0,0)"><g transform="scale(1)"><g><path d="M27.47-24.95Q26.67-11.09 21.9-3.97 17.14 3.15 10.67 6.51L10.67 6.51 10.67 2.48Q15.54-1.22 18.96-7.73 22.39-14.24 23.35-24.95L23.35-24.95 18.86-24.95Q17.64-24.95 16.76-24.09 15.88-23.23 15.88-22.01L15.88-22.01 15.88-10.84 11.84-10.84 11.84-23.44Q11.84-25.49 13.31-26.94 14.78-28.39 16.84-28.39L16.84-28.39 23.6-28.39Q23.69-30.58 23.69-31.75L23.69-31.75 27.59-31.75Q27.64-31.21 27.64-30.07L27.64-30.07Q27.64-28.94 27.59-28.39L27.59-28.39 34.48-28.39Q36.54-28.39 38.01-26.94 39.48-25.49 39.48-23.44L39.48-23.44 39.48-10.84 35.45-10.84 35.45-22.01Q35.45-23.23 34.57-24.09 33.68-24.95 32.47-24.95L32.47-24.95 27.47-24.95ZM5.42-26.33Q4.33-26.33 3.55-27.11 2.77-27.89 2.77-28.98L2.77-28.98Q2.77-30.07 3.55-30.83 4.33-31.58 5.42-31.58L5.42-31.58Q6.51-31.58 7.27-30.83 8.02-30.07 8.02-28.98L8.02-28.98Q8.02-27.89 7.27-27.11 6.51-26.33 5.42-26.33L5.42-26.33ZM1.89-20.5Q10.29-20.41 10.29-11.34L10.29-11.34Q10.29-7.52 8.74-2.06L8.74-2.06 5.96 6.51 1.93 6.51 4.54-2.35Q6.13-7.9 6.13-11.26L6.13-11.26Q6.13-14.07 5.04-15.25 3.95-16.42 1.89-16.59L1.89-16.59 1.89-20.5ZM33.6 3.11L40.11 3.11 40.11 6.51 31.58 6.51Q29.53 6.51 28.06 5.06 26.59 3.61 26.59 1.55L26.59 1.55 26.67-16.51 30.7-16.51 30.62 0.13Q30.62 1.34 31.5 2.23 32.38 3.11 33.6 3.11L33.6 3.11ZM53.34-31.29Q58.13-31.29 58.13-26.54L58.13-26.54 58.13-17.3Q58.13-15.46 56.91-14.03L56.91-14.03Q58.13-12.6 58.13-10.75L58.13-10.75 58.13-1.55Q58.13 4.07 54.05 4.07L54.05 4.07 49.43 4.07 49.43 0.63 54.1 0.63 54.1-9.32Q54.1-10.54 53.21-11.42 52.33-12.31 51.11-12.31L51.11-12.31 49.85-12.31 49.85-15.75 51.11-15.75Q52.33-15.75 53.21-16.63 54.1-17.51 54.1-18.73L54.1-18.73 54.1-25.83Q54.1-26.8 54.01-27.15 53.93-27.51 53.61-27.68 53.3-27.85 52.46-27.85L52.46-27.85 48.01-27.85 48.01 6.51 43.97 6.51 43.97-27.05Q43.97-27.68 44.25-28.64 44.52-29.61 45.38-30.45 46.24-31.29 47.84-31.29L47.84-31.29 53.34-31.29ZM77.87-30.41Q79.38-30.41 80.45-29.32 81.52-28.22 81.52-26.71L81.52-26.71 81.52 1.6Q81.52 3.11 80.45 4.18 79.38 5.25 77.87 5.25L77.87 5.25 59.47 5.25 59.47-26.71Q59.47-28.22 60.54-29.32 61.61-30.41 63.13-30.41L63.13-30.41 77.87-30.41ZM63.5-14.45L77.49-14.45 77.49-25.91Q77.49-26.33 77.2-26.65 76.9-26.96 76.48-26.96L76.48-26.96 63.5-26.96 63.5-14.45ZM77.49 1.81L77.49-10Q77.49-10.42 77.22-10.71 76.94-11 76.52-11L76.52-11 63.5-11 63.5 1.81 77.49 1.81ZM124.07-31.71L124.11 4.49Q124.11 5.33 123.52 5.92 122.93 6.51 122.09 6.51L122.09 6.51 120.08 6.51 120.04-31.71 124.07-31.71ZM103.49-31.67Q105.5-31.67 106.45-30.79 107.39-29.9 108.19-27.85L108.19-27.85 112.69-16.34 108.65-16.34 104.03-28.22 98.7-28.22Q97.69-28.22 97.19-28.71 96.68-29.19 96.68-29.95L96.68-29.95 96.68-31.58 90.17-16.34 86.14-16.34 92.69-31.67 103.49-31.67ZM113.4 5.12L113.4-29.44 117.43-29.44 117.43 5.12 113.4 5.12ZM93.37 1.93Q93.37 2.35 93.66 2.65 93.95 2.94 94.37 2.94L94.37 2.94 111.43 2.94 111.43 4.37Q111.43 5.71 110.75 6.05 110.08 6.38 108.74 6.38L108.74 6.38 92.99 6.38Q91.48 6.38 90.41 5.31 89.33 4.24 89.33 2.73L89.33 2.73 89.33-13.73Q89.33-15.25 90.41-16.32 91.48-17.39 92.99-17.39L92.99-17.39 105.8-17.39Q107.31-17.39 108.38-16.3 109.45-15.2 109.45-13.69L109.45-13.69 109.45-6.85Q109.45-5.33 108.38-4.26 107.31-3.19 105.8-3.19L105.8-3.19 96.94-3.19 96.94-6.64 105.42-6.64 105.42-12.89Q105.42-13.31 105.13-13.63 104.83-13.94 104.41-13.94L104.41-13.94 93.37-13.94 93.37 1.93ZM135.28-31.71L132.05-16.76 128.02-16.76 131.25-31.71 135.28-31.71ZM139.15-31.71Q141.25-31.71 142.3-30.81 143.35-29.9 143.85-27.89L143.85-27.89 146.75-16.76 142.72-16.76 139.69-28.27 137.05-28.27Q136.08-28.27 135.74-28.71 135.41-29.15 135.41-29.99L135.41-29.99 135.41-31.71 139.15-31.71ZM147.84-31.71L166.11-31.71 166.11-28.27 159.43-28.27 157.16-24.36 161.66-24.36Q163.17-24.36 164.24-23.27 165.31-22.18 165.31-20.66L165.31-20.66 165.31-3.15 161.28-3.15 161.28-19.87Q161.28-20.29 160.99-20.6 160.69-20.92 160.27-20.92L160.27-20.92 152.08-20.92 152.08-4.03Q154.6-8.95 154.6-17.18L154.6-17.18 158.59-17.18Q158.59-10.5 157.23-6.07 155.86-1.64 153.34 1.22 150.82 4.07 146.79 6.51L146.79 6.51 146.79 2.44Q150.02-0.34 151.62-3.15L151.62-3.15 148.05-3.15 148.05-20.66Q148.05-22.18 149.12-23.27 150.19-24.36 151.75-24.36L151.75-24.36 153.13-24.36 155.4-28.27 147.84-28.27 147.84-31.71ZM138.01-19.32L139.9-14.03 146.16-14.03 146.16-10.58Q145.24 0.5 138.22 4.03L138.22 4.03 139.73 6.51 135.7 6.51 129.99-3.02 134.02-3.02 136.29 0.76Q138.14 0.04 139.46-1.79 140.78-3.61 141.44-5.94 142.09-8.27 142.13-10.58L142.13-10.58 129.02-10.58 129.02-14.03 135.87-14.03 133.98-19.32 138.01-19.32ZM156.53-3.4L160.57-3.4 166.11 6.51 162.08 6.51 156.53-3.4Z" transform="translate(-1.8899999856948853, 31.75)"></path></g> <!----> <!----> <!----> <!----> <!----> <!----> <!----></g></g> <g data-gra="path-slogan" fill-rule="" class="tp-slogan" fill="#f37122" transform="translate(20.15402603149414,43.260005950927734)"><!----> <!----> <g transform="scale(1, 1)"><g transform="scale(1)"><path d="M5.98-5.08L5.98-5.08L5.08-5.08Q5-6.45 3.28-6.52L3.28-6.52Q1.68-6.48 1.68-5.27L1.68-5.27Q1.68-4.49 2.54-4.38L2.54-4.38L4.57-3.91Q6.17-3.52 6.17-1.95L6.17-1.95Q6.13 0.04 3.36 0.12L3.36 0.12Q1.84 0.12 1.21-0.51L1.21-0.51Q0.43-1.09 0.47-2.30L0.47-2.30L1.41-2.30Q1.45-0.66 3.36-0.63L3.36-0.63Q5.23-0.66 5.27-1.84L5.27-1.84Q5.43-2.81 3.71-3.13L3.71-3.13L2.23-3.44Q0.70-3.87 0.70-5.16L0.70-5.16Q0.82-7.27 3.20-7.34L3.20-7.34Q5.90-7.34 5.98-5.08ZM8.36-4.22L12.11-4.22L12.11-7.15L13.09-7.15L13.09 0L12.11 0L12.11-3.32L8.36-3.32L8.36 0L7.38 0L7.38-7.15L8.36-7.15L8.36-4.22ZM15.66-0.86L19.96-0.86L19.96 0L14.69 0L14.69-7.15L19.88-7.15L19.88-6.33L15.66-6.33L15.66-4.10L19.57-4.10L19.57-3.24L15.66-3.24L15.66-0.86ZM22.38-7.15L25.98-1.37L25.98-7.15L26.91-7.15L26.91 0L25.82 0L22.19-5.78L22.15-5.78L22.15 0L21.21 0L21.21-7.15L22.38-7.15ZM34.18-7.15L31.48-2.89L31.48 0L30.51 0L30.51-2.89L27.81-7.15L28.95-7.15L30.98-3.71L33.05-7.15L34.18-7.15ZM39.77 0L39.06-2.07L36.17-2.07L35.43 0L34.45 0L37.15-7.15L38.24-7.15L40.82 0L39.77 0ZM37.62-6.09L36.48-2.93L38.71-2.93L37.66-6.09L37.62-6.09ZM42.85-7.15L46.45-1.37L46.45-7.15L47.38-7.15L47.38 0L46.29 0L42.66-5.78L42.62-5.78L42.62 0L41.68 0L41.68-7.15L42.85-7.15ZM54.22-3.01L52.03-3.01L52.03-3.83L55.16-3.83L55.16 0L54.53 0L54.30-0.90Q53.48 0.08 51.95 0.12L51.95 0.12Q50.51 0.12 49.73-0.63L49.73-0.63Q48.55-1.72 48.59-3.63L48.59-3.63Q48.87-7.19 51.99-7.34L51.99-7.34Q54.65-7.19 55.04-5L55.04-5L54.10-5Q53.71-6.48 51.95-6.52L51.95-6.52Q49.73-6.37 49.61-3.59L49.61-3.59Q49.61-0.63 51.99-0.63L51.99-0.63Q52.85-0.63 53.48-1.09L53.48-1.09Q54.26-1.72 54.22-3.01L54.22-3.01ZM65.39-5.04L65.39-5.04L64.45-5.04Q64.10-6.48 62.46-6.52L62.46-6.52Q60.20-6.41 60.12-3.63L60.12-3.63Q60.12-0.66 62.50-0.66L62.50-0.66Q64.14-0.70 64.53-2.66L64.53-2.66L65.47-2.66Q65.04 0.04 62.30 0.12L62.30 0.12Q59.18 0 59.10-3.59L59.10-3.59Q59.26-7.19 62.46-7.34L62.46-7.34Q65-7.27 65.39-5.04ZM67.58-4.22L71.33-4.22L71.33-7.15L72.30-7.15L72.30 0L71.33 0L71.33-3.32L67.58-3.32L67.58 0L66.60 0L66.60-7.15L67.58-7.15L67.58-4.22ZM78.52-2.66L78.52-7.15L79.49-7.15L79.49-2.54Q79.38 0.04 76.56 0.12L76.56 0.12Q73.95 0.04 73.83-2.38L73.83-2.38L73.83-7.15L74.80-7.15L74.80-2.66Q74.84-0.70 76.60-0.66L76.60-0.66Q78.52-0.70 78.52-2.66L78.52-2.66ZM85.70 0L85-2.07L82.11-2.07L81.37 0L80.39 0L83.09-7.15L84.18-7.15L86.76 0L85.70 0ZM83.55-6.09L82.42-2.93L84.65-2.93L83.59-6.09L83.55-6.09ZM88.79-7.15L92.38-1.37L92.38-7.15L93.32-7.15L93.32 0L92.23 0L88.59-5.78L88.55-5.78L88.55 0L87.62 0L87.62-7.15L88.79-7.15ZM100.16-3.01L97.97-3.01L97.97-3.83L101.09-3.83L101.09 0L100.47 0L100.23-0.90Q99.41 0.08 97.89 0.12L97.89 0.12Q96.45 0.12 95.66-0.63L95.66-0.63Q94.49-1.72 94.53-3.63L94.53-3.63Q94.80-7.19 97.93-7.34L97.93-7.34Q100.59-7.19 100.98-5L100.98-5L100.04-5Q99.65-6.48 97.89-6.52L97.89-6.52Q95.66-6.37 95.55-3.59L95.55-3.59Q95.55-0.63 97.93-0.63L97.93-0.63Q98.79-0.63 99.41-1.09L99.41-1.09Q100.20-1.72 100.16-3.01L100.16-3.01ZM102.58-7.15L103.55-7.15L103.55-0.86L107.19-0.86L107.19 0L102.58 0L102.58-7.15ZM108.28-7.15L109.26-7.15L109.26 0L108.28 0L108.28-7.15ZM112.07-7.15L115.66-1.37L115.66-7.15L116.60-7.15L116.60 0L115.51 0L111.88-5.78L111.84-5.78L111.84 0L110.90 0L110.90-7.15L112.07-7.15ZM123.44-3.01L121.25-3.01L121.25-3.83L124.38-3.83L124.38 0L123.75 0L123.52-0.90Q122.70 0.08 121.17 0.12L121.17 0.12Q119.73 0.12 118.95-0.63L118.95-0.63Q117.77-1.72 117.81-3.63L117.81-3.63Q118.09-7.19 121.21-7.34L121.21-7.34Q123.87-7.19 124.26-5L124.26-5L123.32-5Q122.93-6.48 121.17-6.52L121.17-6.52Q118.95-6.37 118.83-3.59L118.83-3.59Q118.83-0.63 121.21-0.63L121.21-0.63Q122.07-0.63 122.70-1.09L122.70-1.09Q123.48-1.72 123.44-3.01L123.44-3.01Z" transform="translate(-0.466889880952381, 7.34375)"></path></g></g></g></g></g></g><mask id="db5bd387-693d-487d-bf2d-e3a8caae2bc6"><g fill="white"><g><rect fill-opacity="1" stroke-width="2" x="0" y="0" width="105" height="105.03045883306159" class="image-rect"></rect> <svg x="0" y="0" width="105" height="105.03045883306159" class="image-svg-svg primary" style="overflow: visible;" filter="url(#colorsf4652510512)"><svg xmlns="http://www.w3.org/2000/svg" viewBox="-0.09710283577442169 0.03862883150577545 418.74066162109375 418.8631286621094"><g><g><path d="M336.27 375.88a200.32 200.32 0 0 0 53.56-64.34c-.36.51-.74 1-1.09 1.54s-.69 1.13-1 1.71C372.88 340.34 353 361.22 328.77 378a196.08 196.08 0 0 1-81.9 33.09c-30.13 4.75-60.17 4.17-90-2.84-2.43-.57-4.83-1.27-7.23-2s-4.73-1.4-7.14-1.89a204 204 0 0 0 69.29 13 208.09 208.09 0 0 0 69.9-10.81c-1.16.44-2.32.91-3.5 1.32a194.59 194.59 0 0 1-47.85 10.58c-7.6.66-15.31 0-23 .31-25 1.08-49-4.08-72.15-13.08-29-11.26-54.42-28.07-75.44-51a227.42 227.42 0 0 1-55.72-108 195.16 195.16 0 0 1-2.63-64.05 205.28 205.28 0 0 1 37-95.82 201.64 201.64 0 0 1 37.76-39.63 4.65 4.65 0 0 1 1.73-.93c-19.08 16.43-35.1 35.35-47 57.62 1.21-1.88 2.41-3.78 3.63-5.65s2.47-3.75 3.75-5.6q38.43-55.17 102-77C161.14 8.43 182.7 5.21 204.77 5c16.61-.13 33.14.48 49.37 4.18 9.38 2.14 18.58 5.09 27.86 7.68a8.53 8.53 0 0 0 2.32.46C235.39-2.69 185.88-4 135.7 12.62c5.1-1.66 10.17-3.41 15.3-5a194 194 0 0 1 36.88-7.3c2.65-.26 5.33-.19 8-.2 6.32 0 12.66.18 19 0 21-.72 41.21 3.39 60.89 10.27 47 16.41 83.51 45.88 109.32 88.38 14.48 23.82 25.4 49.16 30.24 76.85a205.59 205.59 0 0 1-17.49 126.88 200.08 200.08 0 0 1-52.25 66.69c-2.91 2.45-5.9 4.79-8.86 7.17zm67.53-200.69c-.22-1-.45-1.93-.64-2.89a198.89 198.89 0 0 0-39.45-85.52q-37.9-48-96.16-67.24c-18.21-6-36.92-9.74-56.07-9.6a191.66 191.66 0 0 0-34.94 3.52C132.88 22 95.45 42.21 65.05 74.92a195.87 195.87 0 0 0-43.76 75.34c-3.48 11-5.71 22.46-8.1 32.08a185.73 185.73 0 0 1 8.37-37.62 235.32 235.32 0 0 1 15.9-36.94 6.92 6.92 0 0 0-1.57 2 198.65 198.65 0 0 0-21.24 52.31 205.32 205.32 0 0 0-5.18 71.07 198.32 198.32 0 0 0 17.28 64c11 23.59 27.06 43.38 46.28 60.73 1.34 1.21 2.77 2.31 4.15 3.46C42.66 328.41 21.27 288.76 14 241.63c2.24 8.52 4.07 17.21 6.75 25.63 13 40.93 36.42 74.65 70.59 100.77 29.44 22.5 62.72 35.66 99.44 40.1 20.39 2.47 40.54.54 60.43-4.19 40.25-9.56 74.41-29.65 102.47-60 24.49-26.48 40.53-57.48 48.53-92.63 1.29-5.66 2.19-11.41 3.27-17.13-2.73 28.36-11.73 54.69-26.23 80a7 7 0 0 0 1-.75c.32-.48.64-1 .94-1.47a202.42 202.42 0 0 0 28.95-96c1.45-31.42-3.79-61.68-16.48-90.51-9.85-22.41-24.71-41.3-42-58.35-.65-.65-1.33-1.26-2-1.88l-2-1.79c30.6 31.35 49.59 68.43 56.14 111.76zm10.74 36.61c-.85 7.54-1.43 17.2-3.08 26.68-6 34.21-19.26 65.29-41 92.56-16.37 20.57-36 37.5-58 51.82l-3.15 2a2.11 2.11 0 0 0 1.74-.3c9.13-6.08 18.68-11.63 27.29-18.37 29.47-23.1 50.85-52.34 64.66-87.15 8.87-22.29 12.06-45.5 11.54-67.24zM107.83 34.89C91.06 40 53.29 74 37.25 98.49c-22 33.52-34.66 69.83-33 109.8 4.01-75.53 39.98-132.65 103.58-173.4z"></path><path d="M12.17 197.06l-.62 10.09v-10.22z"></path></g></g></svg></svg> <defs>  </defs></g></g> <g transform="translate(27.389999389648438,31.653350830078125)"><rect fill="black" fill-opacity="1" x="-3.5" y="-3.5" width="171.22000122070312" height="45.260005950927734"></rect><rect fill="black" fill-opacity="1" x="-3.5" y="-3.5" transform="translate(20.15518492460251,43.260005950927734)" width="130.91194915771484" height="14.46000051498413"></rect></g><g transform="translate(27.389999389648438,31.653350830078125)" fill="black"><g data-gra="path-name" fill-rule="" class="tp-name" transform="translate(0,0)"><g transform="scale(1)"><g><path d="M27.47-24.95Q26.67-11.09 21.9-3.97 17.14 3.15 10.67 6.51L10.67 6.51 10.67 2.48Q15.54-1.22 18.96-7.73 22.39-14.24 23.35-24.95L23.35-24.95 18.86-24.95Q17.64-24.95 16.76-24.09 15.88-23.23 15.88-22.01L15.88-22.01 15.88-10.84 11.84-10.84 11.84-23.44Q11.84-25.49 13.31-26.94 14.78-28.39 16.84-28.39L16.84-28.39 23.6-28.39Q23.69-30.58 23.69-31.75L23.69-31.75 27.59-31.75Q27.64-31.21 27.64-30.07L27.64-30.07Q27.64-28.94 27.59-28.39L27.59-28.39 34.48-28.39Q36.54-28.39 38.01-26.94 39.48-25.49 39.48-23.44L39.48-23.44 39.48-10.84 35.45-10.84 35.45-22.01Q35.45-23.23 34.57-24.09 33.68-24.95 32.47-24.95L32.47-24.95 27.47-24.95ZM5.42-26.33Q4.33-26.33 3.55-27.11 2.77-27.89 2.77-28.98L2.77-28.98Q2.77-30.07 3.55-30.83 4.33-31.58 5.42-31.58L5.42-31.58Q6.51-31.58 7.27-30.83 8.02-30.07 8.02-28.98L8.02-28.98Q8.02-27.89 7.27-27.11 6.51-26.33 5.42-26.33L5.42-26.33ZM1.89-20.5Q10.29-20.41 10.29-11.34L10.29-11.34Q10.29-7.52 8.74-2.06L8.74-2.06 5.96 6.51 1.93 6.51 4.54-2.35Q6.13-7.9 6.13-11.26L6.13-11.26Q6.13-14.07 5.04-15.25 3.95-16.42 1.89-16.59L1.89-16.59 1.89-20.5ZM33.6 3.11L40.11 3.11 40.11 6.51 31.58 6.51Q29.53 6.51 28.06 5.06 26.59 3.61 26.59 1.55L26.59 1.55 26.67-16.51 30.7-16.51 30.62 0.13Q30.62 1.34 31.5 2.23 32.38 3.11 33.6 3.11L33.6 3.11ZM53.34-31.29Q58.13-31.29 58.13-26.54L58.13-26.54 58.13-17.3Q58.13-15.46 56.91-14.03L56.91-14.03Q58.13-12.6 58.13-10.75L58.13-10.75 58.13-1.55Q58.13 4.07 54.05 4.07L54.05 4.07 49.43 4.07 49.43 0.63 54.1 0.63 54.1-9.32Q54.1-10.54 53.21-11.42 52.33-12.31 51.11-12.31L51.11-12.31 49.85-12.31 49.85-15.75 51.11-15.75Q52.33-15.75 53.21-16.63 54.1-17.51 54.1-18.73L54.1-18.73 54.1-25.83Q54.1-26.8 54.01-27.15 53.93-27.51 53.61-27.68 53.3-27.85 52.46-27.85L52.46-27.85 48.01-27.85 48.01 6.51 43.97 6.51 43.97-27.05Q43.97-27.68 44.25-28.64 44.52-29.61 45.38-30.45 46.24-31.29 47.84-31.29L47.84-31.29 53.34-31.29ZM77.87-30.41Q79.38-30.41 80.45-29.32 81.52-28.22 81.52-26.71L81.52-26.71 81.52 1.6Q81.52 3.11 80.45 4.18 79.38 5.25 77.87 5.25L77.87 5.25 59.47 5.25 59.47-26.71Q59.47-28.22 60.54-29.32 61.61-30.41 63.13-30.41L63.13-30.41 77.87-30.41ZM63.5-14.45L77.49-14.45 77.49-25.91Q77.49-26.33 77.2-26.65 76.9-26.96 76.48-26.96L76.48-26.96 63.5-26.96 63.5-14.45ZM77.49 1.81L77.49-10Q77.49-10.42 77.22-10.71 76.94-11 76.52-11L76.52-11 63.5-11 63.5 1.81 77.49 1.81ZM124.07-31.71L124.11 4.49Q124.11 5.33 123.52 5.92 122.93 6.51 122.09 6.51L122.09 6.51 120.08 6.51 120.04-31.71 124.07-31.71ZM103.49-31.67Q105.5-31.67 106.45-30.79 107.39-29.9 108.19-27.85L108.19-27.85 112.69-16.34 108.65-16.34 104.03-28.22 98.7-28.22Q97.69-28.22 97.19-28.71 96.68-29.19 96.68-29.95L96.68-29.95 96.68-31.58 90.17-16.34 86.14-16.34 92.69-31.67 103.49-31.67ZM113.4 5.12L113.4-29.44 117.43-29.44 117.43 5.12 113.4 5.12ZM93.37 1.93Q93.37 2.35 93.66 2.65 93.95 2.94 94.37 2.94L94.37 2.94 111.43 2.94 111.43 4.37Q111.43 5.71 110.75 6.05 110.08 6.38 108.74 6.38L108.74 6.38 92.99 6.38Q91.48 6.38 90.41 5.31 89.33 4.24 89.33 2.73L89.33 2.73 89.33-13.73Q89.33-15.25 90.41-16.32 91.48-17.39 92.99-17.39L92.99-17.39 105.8-17.39Q107.31-17.39 108.38-16.3 109.45-15.2 109.45-13.69L109.45-13.69 109.45-6.85Q109.45-5.33 108.38-4.26 107.31-3.19 105.8-3.19L105.8-3.19 96.94-3.19 96.94-6.64 105.42-6.64 105.42-12.89Q105.42-13.31 105.13-13.63 104.83-13.94 104.41-13.94L104.41-13.94 93.37-13.94 93.37 1.93ZM135.28-31.71L132.05-16.76 128.02-16.76 131.25-31.71 135.28-31.71ZM139.15-31.71Q141.25-31.71 142.3-30.81 143.35-29.9 143.85-27.89L143.85-27.89 146.75-16.76 142.72-16.76 139.69-28.27 137.05-28.27Q136.08-28.27 135.74-28.71 135.41-29.15 135.41-29.99L135.41-29.99 135.41-31.71 139.15-31.71ZM147.84-31.71L166.11-31.71 166.11-28.27 159.43-28.27 157.16-24.36 161.66-24.36Q163.17-24.36 164.24-23.27 165.31-22.18 165.31-20.66L165.31-20.66 165.31-3.15 161.28-3.15 161.28-19.87Q161.28-20.29 160.99-20.6 160.69-20.92 160.27-20.92L160.27-20.92 152.08-20.92 152.08-4.03Q154.6-8.95 154.6-17.18L154.6-17.18 158.59-17.18Q158.59-10.5 157.23-6.07 155.86-1.64 153.34 1.22 150.82 4.07 146.79 6.51L146.79 6.51 146.79 2.44Q150.02-0.34 151.62-3.15L151.62-3.15 148.05-3.15 148.05-20.66Q148.05-22.18 149.12-23.27 150.19-24.36 151.75-24.36L151.75-24.36 153.13-24.36 155.4-28.27 147.84-28.27 147.84-31.71ZM138.01-19.32L139.9-14.03 146.16-14.03 146.16-10.58Q145.24 0.5 138.22 4.03L138.22 4.03 139.73 6.51 135.7 6.51 129.99-3.02 134.02-3.02 136.29 0.76Q138.14 0.04 139.46-1.79 140.78-3.61 141.44-5.94 142.09-8.27 142.13-10.58L142.13-10.58 129.02-10.58 129.02-14.03 135.87-14.03 133.98-19.32 138.01-19.32ZM156.53-3.4L160.57-3.4 166.11 6.51 162.08 6.51 156.53-3.4Z" transform="translate(-1.8899999856948853, 31.75)"></path></g>       </g></g> <g data-gra="path-slogan" fill-rule="" class="tp-slogan" transform="translate(20.15402603149414,43.260005950927734)">  <g transform="scale(1, 1)"><g transform="scale(1)"><path d="M5.98-5.08L5.98-5.08L5.08-5.08Q5-6.45 3.28-6.52L3.28-6.52Q1.68-6.48 1.68-5.27L1.68-5.27Q1.68-4.49 2.54-4.38L2.54-4.38L4.57-3.91Q6.17-3.52 6.17-1.95L6.17-1.95Q6.13 0.04 3.36 0.12L3.36 0.12Q1.84 0.12 1.21-0.51L1.21-0.51Q0.43-1.09 0.47-2.30L0.47-2.30L1.41-2.30Q1.45-0.66 3.36-0.63L3.36-0.63Q5.23-0.66 5.27-1.84L5.27-1.84Q5.43-2.81 3.71-3.13L3.71-3.13L2.23-3.44Q0.70-3.87 0.70-5.16L0.70-5.16Q0.82-7.27 3.20-7.34L3.20-7.34Q5.90-7.34 5.98-5.08ZM8.36-4.22L12.11-4.22L12.11-7.15L13.09-7.15L13.09 0L12.11 0L12.11-3.32L8.36-3.32L8.36 0L7.38 0L7.38-7.15L8.36-7.15L8.36-4.22ZM15.66-0.86L19.96-0.86L19.96 0L14.69 0L14.69-7.15L19.88-7.15L19.88-6.33L15.66-6.33L15.66-4.10L19.57-4.10L19.57-3.24L15.66-3.24L15.66-0.86ZM22.38-7.15L25.98-1.37L25.98-7.15L26.91-7.15L26.91 0L25.82 0L22.19-5.78L22.15-5.78L22.15 0L21.21 0L21.21-7.15L22.38-7.15ZM34.18-7.15L31.48-2.89L31.48 0L30.51 0L30.51-2.89L27.81-7.15L28.95-7.15L30.98-3.71L33.05-7.15L34.18-7.15ZM39.77 0L39.06-2.07L36.17-2.07L35.43 0L34.45 0L37.15-7.15L38.24-7.15L40.82 0L39.77 0ZM37.62-6.09L36.48-2.93L38.71-2.93L37.66-6.09L37.62-6.09ZM42.85-7.15L46.45-1.37L46.45-7.15L47.38-7.15L47.38 0L46.29 0L42.66-5.78L42.62-5.78L42.62 0L41.68 0L41.68-7.15L42.85-7.15ZM54.22-3.01L52.03-3.01L52.03-3.83L55.16-3.83L55.16 0L54.53 0L54.30-0.90Q53.48 0.08 51.95 0.12L51.95 0.12Q50.51 0.12 49.73-0.63L49.73-0.63Q48.55-1.72 48.59-3.63L48.59-3.63Q48.87-7.19 51.99-7.34L51.99-7.34Q54.65-7.19 55.04-5L55.04-5L54.10-5Q53.71-6.48 51.95-6.52L51.95-6.52Q49.73-6.37 49.61-3.59L49.61-3.59Q49.61-0.63 51.99-0.63L51.99-0.63Q52.85-0.63 53.48-1.09L53.48-1.09Q54.26-1.72 54.22-3.01L54.22-3.01ZM65.39-5.04L65.39-5.04L64.45-5.04Q64.10-6.48 62.46-6.52L62.46-6.52Q60.20-6.41 60.12-3.63L60.12-3.63Q60.12-0.66 62.50-0.66L62.50-0.66Q64.14-0.70 64.53-2.66L64.53-2.66L65.47-2.66Q65.04 0.04 62.30 0.12L62.30 0.12Q59.18 0 59.10-3.59L59.10-3.59Q59.26-7.19 62.46-7.34L62.46-7.34Q65-7.27 65.39-5.04ZM67.58-4.22L71.33-4.22L71.33-7.15L72.30-7.15L72.30 0L71.33 0L71.33-3.32L67.58-3.32L67.58 0L66.60 0L66.60-7.15L67.58-7.15L67.58-4.22ZM78.52-2.66L78.52-7.15L79.49-7.15L79.49-2.54Q79.38 0.04 76.56 0.12L76.56 0.12Q73.95 0.04 73.83-2.38L73.83-2.38L73.83-7.15L74.80-7.15L74.80-2.66Q74.84-0.70 76.60-0.66L76.60-0.66Q78.52-0.70 78.52-2.66L78.52-2.66ZM85.70 0L85-2.07L82.11-2.07L81.37 0L80.39 0L83.09-7.15L84.18-7.15L86.76 0L85.70 0ZM83.55-6.09L82.42-2.93L84.65-2.93L83.59-6.09L83.55-6.09ZM88.79-7.15L92.38-1.37L92.38-7.15L93.32-7.15L93.32 0L92.23 0L88.59-5.78L88.55-5.78L88.55 0L87.62 0L87.62-7.15L88.79-7.15ZM100.16-3.01L97.97-3.01L97.97-3.83L101.09-3.83L101.09 0L100.47 0L100.23-0.90Q99.41 0.08 97.89 0.12L97.89 0.12Q96.45 0.12 95.66-0.63L95.66-0.63Q94.49-1.72 94.53-3.63L94.53-3.63Q94.80-7.19 97.93-7.34L97.93-7.34Q100.59-7.19 100.98-5L100.98-5L100.04-5Q99.65-6.48 97.89-6.52L97.89-6.52Q95.66-6.37 95.55-3.59L95.55-3.59Q95.55-0.63 97.93-0.63L97.93-0.63Q98.79-0.63 99.41-1.09L99.41-1.09Q100.20-1.72 100.16-3.01L100.16-3.01ZM102.58-7.15L103.55-7.15L103.55-0.86L107.19-0.86L107.19 0L102.58 0L102.58-7.15ZM108.28-7.15L109.26-7.15L109.26 0L108.28 0L108.28-7.15ZM112.07-7.15L115.66-1.37L115.66-7.15L116.60-7.15L116.60 0L115.51 0L111.88-5.78L111.84-5.78L111.84 0L110.90 0L110.90-7.15L112.07-7.15ZM123.44-3.01L121.25-3.01L121.25-3.83L124.38-3.83L124.38 0L123.75 0L123.52-0.90Q122.70 0.08 121.17 0.12L121.17 0.12Q119.73 0.12 118.95-0.63L118.95-0.63Q117.77-1.72 117.81-3.63L117.81-3.63Q118.09-7.19 121.21-7.34L121.21-7.34Q123.87-7.19 124.26-5L124.26-5L123.32-5Q122.93-6.48 121.17-6.52L121.17-6.52Q118.95-6.37 118.83-3.59L118.83-3.59Q118.83-0.63 121.21-0.63L121.21-0.63Q122.07-0.63 122.70-1.09L122.70-1.09Q123.48-1.72 123.44-3.01L123.44-3.01Z" transform="translate(-0.466889880952381, 7.34375)"></path></g></g></g></g></mask><defs v-gra="od"></defs></svg>